<svg width="250" height="58" viewBox="0 0 250 58" fill="none" xmlns="http://www.w3.org/2000/svg">
<path d="M28.2319 57.5C18.1472 57.5 10.678 54.6433 5.82435 48.9298C4.09861 46.8816 2.69646 44.1596 1.61787 40.7638C0.539291 37.3681 0 33.2447 0 28.3936C0 23.5426 0.781973 19.2035 2.34592 15.3766C3.96379 11.4957 6.14792 8.50425 8.89831 6.40213C14.2373 2.46738 20.6818 0.5 28.2319 0.5C30.3891 0.5 32.4923 0.688653 34.5416 1.06596C36.5909 1.38936 38.1279 1.73972 39.1525 2.11702L40.6086 2.68298L40.366 3.49149C36.6988 2.03617 32.6541 1.30851 28.2319 1.30851C22.5154 1.30851 17.7427 3.16808 13.9137 6.88723C11.0015 9.63617 8.95224 13.6787 7.76579 19.0149C7.06472 22.0333 6.71418 25.7255 6.71418 30.0915C6.71418 34.4574 7.33436 38.5 8.57473 42.2192C9.8151 45.8844 11.2173 48.6064 12.7812 50.3851C14.3991 52.1638 16.3405 53.5922 18.6055 54.6702C20.8706 55.6943 22.6772 56.2872 24.0254 56.4489C25.3737 56.6106 26.9915 56.6915 28.879 56.6915C30.8205 56.6915 33.0046 56.5028 35.4314 56.1255C37.8582 55.7482 39.6918 55.3979 40.9322 55.0745L42.7928 54.5085L43.0354 55.317C38.9368 56.7723 34.0023 57.5 28.2319 57.5Z" fill="#1E1E1E"/>
<path d="M55.1965 57.5C45.1117 57.5 37.6425 54.6433 32.7889 48.9298C31.0632 46.8816 29.661 44.1596 28.5824 40.7638C27.5039 37.3681 26.9646 33.2447 26.9646 28.3936C26.9646 23.5426 27.7465 19.2035 29.3105 15.3766C30.9284 11.4957 33.1125 8.50425 35.8629 6.40213C41.2019 2.46738 47.6464 0.5 55.1965 0.5C57.3536 0.5 59.4569 0.688653 61.5062 1.06596C63.5555 1.38936 65.0925 1.73972 66.1171 2.11702L67.5732 2.68298L67.3305 3.49149C63.6633 2.03617 59.6186 1.30851 55.1965 1.30851C49.48 1.30851 44.7072 3.16808 40.8783 6.88723C37.9661 9.63617 35.9168 13.6787 34.7304 19.0149C34.0293 22.0333 33.6787 25.7255 33.6787 30.0915C33.6787 34.4574 34.2989 38.5 35.5393 42.2192C36.7797 45.8844 38.1818 48.6064 39.7458 50.3851C41.3636 52.1638 43.3051 53.5922 45.5701 54.6702C47.8351 55.6943 49.6418 56.2872 50.99 56.4489C52.3382 56.6106 53.9561 56.6915 55.8436 56.6915C57.7851 56.6915 59.9692 56.5028 62.396 56.1255C64.8228 55.7482 66.6564 55.3979 67.8968 55.0745L69.7573 54.5085L70 55.317C65.9014 56.7723 60.9669 57.5 55.1965 57.5Z" fill="#1E1E1E"/>
<path d="M75.944 14.9C75.944 12.404 76.46 10.184 77.492 8.24C78.548 6.272 79.988 4.736 81.812 3.632C83.66 2.528 85.724 1.976 88.004 1.976C90.884 1.976 93.308 2.648 95.276 3.992C97.244 5.336 98.684 7.22 99.596 9.644H97.724C97.004 7.724 95.804 6.212 94.124 5.108C92.468 3.98 90.428 3.416 88.004 3.416C86.06 3.416 84.296 3.884 82.712 4.82C81.128 5.732 79.88 7.064 78.968 8.816C78.056 10.544 77.6 12.572 77.6 14.9C77.6 17.204 78.056 19.22 78.968 20.948C79.88 22.652 81.128 23.972 82.712 24.908C84.296 25.844 86.06 26.312 88.004 26.312C90.428 26.312 92.468 25.76 94.124 24.656C95.804 23.528 97.004 22.004 97.724 20.084H99.596C98.684 22.508 97.244 24.392 95.276 25.736C93.308 27.08 90.884 27.752 88.004 27.752C85.724 27.752 83.66 27.212 81.812 26.132C79.988 25.028 78.548 23.504 77.492 21.56C76.46 19.592 75.944 17.372 75.944 14.9Z" fill="#1E1E1E"/>
<path d="M120.423 21.02H108.435L106.023 27.5H104.259L113.547 2.804H115.347L124.599 27.5H122.835L120.423 21.02ZM119.919 19.652L114.447 4.928L108.939 19.652H119.919Z" fill="#1E1E1E"/>
<path d="M143.749 27.5L137.269 16.736H131.725V27.5H130.105V2.228H137.053C139.861 2.228 141.961 2.888 143.353 4.208C144.769 5.528 145.477 7.28 145.477 9.464C145.477 11.408 144.925 13.016 143.821 14.288C142.741 15.536 141.157 16.304 139.069 16.592L145.693 27.5H143.749ZM131.725 15.368H137.125C139.357 15.368 141.025 14.828 142.129 13.748C143.233 12.668 143.785 11.24 143.785 9.464C143.785 5.6 141.541 3.668 137.053 3.668H131.725V15.368Z" fill="#1E1E1E"/>
<path d="M153.345 3.596V14.144H163.425V15.512H153.345V26.132H164.505V27.5H151.725V2.228H164.505V3.596H153.345Z" fill="#1E1E1E"/>
<path d="M172.469 3.596V14.144H182.549V15.512H172.469V26.132H183.629V27.5H170.849V2.228H183.629V3.596H172.469Z" fill="#1E1E1E"/>
<path d="M203.616 27.5L197.136 16.736H191.592V27.5H189.972V2.228H196.92C199.728 2.228 201.828 2.888 203.22 4.208C204.636 5.528 205.344 7.28 205.344 9.464C205.344 11.408 204.792 13.016 203.688 14.288C202.608 15.536 201.024 16.304 198.936 16.592L205.56 27.5H203.616ZM191.592 15.368H196.992C199.224 15.368 200.892 14.828 201.996 13.748C203.1 12.668 203.652 11.24 203.652 9.464C203.652 5.6 201.408 3.668 196.92 3.668H191.592V15.368Z" fill="#1E1E1E"/>
<path d="M75.944 42.9C75.944 40.404 76.46 38.184 77.492 36.24C78.548 34.272 79.988 32.736 81.812 31.632C83.66 30.528 85.724 29.976 88.004 29.976C90.884 29.976 93.308 30.648 95.276 31.992C97.244 33.336 98.684 35.22 99.596 37.644H97.724C97.004 35.724 95.804 34.212 94.124 33.108C92.468 31.98 90.428 31.416 88.004 31.416C86.06 31.416 84.296 31.884 82.712 32.82C81.128 33.732 79.88 35.064 78.968 36.816C78.056 38.544 77.6 40.572 77.6 42.9C77.6 45.204 78.056 47.22 78.968 48.948C79.88 50.652 81.128 51.972 82.712 52.908C84.296 53.844 86.06 54.312 88.004 54.312C90.428 54.312 92.468 53.76 94.124 52.656C95.804 51.528 97.004 50.004 97.724 48.084H99.596C98.684 50.508 97.244 52.392 95.276 53.736C93.308 55.08 90.884 55.752 88.004 55.752C85.724 55.752 83.66 55.212 81.812 54.132C79.988 53.028 78.548 51.504 77.492 49.56C76.46 47.592 75.944 45.372 75.944 42.9Z" fill="#1E1E1E"/>
<path d="M117.363 55.788C115.035 55.788 112.935 55.248 111.063 54.168C109.191 53.064 107.727 51.528 106.671 49.56C105.615 47.592 105.087 45.372 105.087 42.9C105.087 40.404 105.615 38.184 106.671 36.24C107.727 34.272 109.191 32.748 111.063 31.668C112.935 30.564 115.035 30.012 117.363 30.012C119.691 30.012 121.791 30.564 123.663 31.668C125.535 32.748 126.999 34.272 128.055 36.24C129.111 38.184 129.639 40.404 129.639 42.9C129.639 45.372 129.111 47.592 128.055 49.56C126.999 51.528 125.535 53.064 123.663 54.168C121.791 55.248 119.691 55.788 117.363 55.788ZM117.363 54.348C119.355 54.348 121.155 53.88 122.763 52.944C124.371 52.008 125.631 50.676 126.543 48.948C127.479 47.22 127.947 45.204 127.947 42.9C127.947 40.572 127.479 38.544 126.543 36.816C125.631 35.088 124.371 33.756 122.763 32.82C121.155 31.884 119.355 31.416 117.363 31.416C115.371 31.416 113.571 31.884 111.963 32.82C110.355 33.756 109.083 35.088 108.147 36.816C107.211 38.544 106.743 40.572 106.743 42.9C106.743 45.204 107.211 47.22 108.147 48.948C109.083 50.676 110.355 52.008 111.963 52.944C113.571 53.88 115.371 54.348 117.363 54.348Z" fill="#1E1E1E"/>
<path d="M154.049 55.5H152.429L137.597 32.892V55.5H135.977V30.264H137.597L152.429 52.8V30.264H154.049V55.5Z" fill="#1E1E1E"/>
<path d="M179.5 55.5H177.88L163.048 32.892V55.5H161.428V30.264H163.048L177.88 52.8V30.264H179.5V55.5Z" fill="#1E1E1E"/>
<path d="M188.5 31.596V42.144H198.58V43.512H188.5V54.132H199.66V55.5H186.88V30.228H199.66V31.596H188.5Z" fill="#1E1E1E"/>
<path d="M204.996 42.9C204.996 40.404 205.512 38.184 206.544 36.24C207.6 34.272 209.04 32.736 210.864 31.632C212.712 30.528 214.776 29.976 217.056 29.976C219.936 29.976 222.36 30.648 224.328 31.992C226.296 33.336 227.736 35.22 228.648 37.644H226.776C226.056 35.724 224.856 34.212 223.176 33.108C221.52 31.98 219.48 31.416 217.056 31.416C215.112 31.416 213.348 31.884 211.764 32.82C210.18 33.732 208.932 35.064 208.02 36.816C207.108 38.544 206.652 40.572 206.652 42.9C206.652 45.204 207.108 47.22 208.02 48.948C208.932 50.652 210.18 51.972 211.764 52.908C213.348 53.844 215.112 54.312 217.056 54.312C219.48 54.312 221.52 53.76 223.176 52.656C224.856 51.528 226.056 50.004 226.776 48.084H228.648C227.736 50.508 226.296 52.392 224.328 53.736C222.36 55.08 219.936 55.752 217.056 55.752C214.776 55.752 212.712 55.212 210.864 54.132C209.04 53.028 207.6 51.504 206.544 49.56C205.512 47.592 204.996 45.372 204.996 42.9Z" fill="#1E1E1E"/>
<path d="M249.115 30.228V31.596H241.915V55.5H240.295V31.596H233.095V30.228H249.115Z" fill="#1E1E1E"/>
</svg>
